<svg width="172" height="42" viewBox="0 0 172 42" fill="none" xmlns="http://www.w3.org/2000/svg">
<path d="M30.2574 27.2772C30.2574 27.345 30.2066 28.1412 30.105 29.666H10.0799C10.4865 31.0891 11.2658 32.1903 12.4178 32.9696C13.6037 33.7151 15.0777 34.0878 16.8396 34.0878C18.1611 34.0878 19.2962 33.9014 20.2449 33.5287C21.2275 33.156 22.2101 32.5461 23.1927 31.699L28.2753 36.9848C25.5985 39.9666 21.6849 41.4574 16.5347 41.4574C13.3157 41.4574 10.4865 40.8475 8.04687 39.6277C5.60726 38.4079 3.70979 36.7137 2.35446 34.5452C1.033 32.3767 0.372278 29.9201 0.372278 27.1756C0.372278 24.4649 1.01606 22.0422 2.30363 19.9076C3.62508 17.739 5.43785 16.0449 7.74192 14.8251C10.046 13.6053 12.6381 12.9954 15.5182 12.9954C18.2627 12.9954 20.7531 13.5714 22.9894 14.7234C25.2258 15.8416 26.9877 17.4849 28.2753 19.6535C29.5967 21.7881 30.2574 24.3294 30.2574 27.2772ZM15.569 19.8568C14.0781 19.8568 12.8244 20.2803 11.8079 21.1274C10.8253 21.9745 10.1985 23.1265 9.9274 24.5835H21.2106C20.9395 23.1265 20.2957 21.9745 19.2792 21.1274C18.2966 20.2803 17.0599 19.8568 15.569 19.8568ZM47.6702 41.7116C44.7901 41.7116 41.9947 41.3558 39.2841 40.6442C36.5734 39.9327 34.371 38.9839 32.6768 37.798L35.9804 30.3776C37.5729 31.4279 39.4196 32.275 41.5204 32.9188C43.6211 33.5626 45.688 33.8845 47.721 33.8845C51.5837 33.8845 53.5151 32.9188 53.5151 30.9875C53.5151 29.971 52.956 29.2255 51.8379 28.7512C50.7536 28.2429 48.9916 27.7177 46.552 27.1756C43.8753 26.5996 41.6389 25.9897 39.8431 25.3459C38.0473 24.6682 36.5056 23.6009 35.218 22.1439C33.9305 20.6869 33.2867 18.7217 33.2867 16.2482C33.2867 14.0796 33.8797 12.1313 35.0656 10.4033C36.2515 8.64135 38.0134 7.25213 40.3514 6.23563C42.7232 5.21913 45.6202 4.71088 49.0425 4.71088C51.3804 4.71088 53.6845 4.98194 55.9547 5.52408C58.2249 6.03233 60.224 6.79471 61.952 7.81121L58.8517 15.2825C55.4634 13.4528 52.1767 12.5379 48.9916 12.5379C46.9925 12.5379 45.5355 12.8429 44.6207 13.4528C43.7058 14.0288 43.2484 14.7912 43.2484 15.7399C43.2484 16.6887 43.7905 17.4002 44.8748 17.8746C45.9591 18.3489 47.7041 18.8403 50.1098 19.3485C52.8205 19.9245 55.0568 20.5514 56.8187 21.229C58.6145 21.8728 60.1562 22.9232 61.4438 24.3802C62.7653 25.8033 63.426 27.7516 63.426 30.2251C63.426 32.3597 62.833 34.2911 61.6471 36.0191C60.4612 37.7472 58.6823 39.1364 56.3105 40.1868C53.9386 41.2033 51.0585 41.7116 47.6702 41.7116ZM85.5583 12.9954C88.9805 12.9954 91.7251 14.0119 93.792 16.0449C95.8928 18.0779 96.9431 21.1443 96.9431 25.2442V41H87.2864V26.8198C87.2864 23.0587 85.7786 21.1782 82.7629 21.1782C81.1027 21.1782 79.7643 21.7203 78.7478 22.8046C77.7651 23.8889 77.2738 25.5153 77.2738 27.6838V41H67.6171V3.28777H77.2738V15.9941C78.3242 15.0114 79.561 14.266 80.9841 13.7577C82.4072 13.2495 83.9319 12.9954 85.5583 12.9954ZM131.976 13.4528V41H122.777V38.0521C121.76 39.1703 120.541 40.0174 119.118 40.5934C117.694 41.1694 116.187 41.4574 114.594 41.4574C111.036 41.4574 108.19 40.407 106.056 38.3063C103.955 36.2055 102.904 33.0543 102.904 28.8528V13.4528H112.561V27.2772C112.561 29.3441 112.951 30.8519 113.73 31.8007C114.509 32.7494 115.645 33.2238 117.135 33.2238C118.66 33.2238 119.897 32.6986 120.846 31.6482C121.828 30.5639 122.32 28.9206 122.32 26.7181V13.4528H131.976ZM147.396 16.7564C148.378 15.5027 149.649 14.5709 151.208 13.961C152.8 13.3173 154.613 12.9954 156.646 12.9954V21.6865C155.765 21.5848 155.036 21.534 154.46 21.534C152.394 21.534 150.767 22.0931 149.581 23.2112C148.429 24.3294 147.853 26.0405 147.853 28.3445V41H138.196V13.4528H147.396V16.7564ZM160.631 13.4528H170.288V41H160.631V13.4528ZM165.459 10.4033C163.697 10.4033 162.274 9.91198 161.19 8.92936C160.106 7.94674 159.564 6.72694 159.564 5.26995C159.564 3.81297 160.106 2.59316 161.19 1.61055C162.274 0.627928 163.697 0.136619 165.459 0.136619C167.221 0.136619 168.644 0.610986 169.729 1.55972C170.813 2.47457 171.355 3.66049 171.355 5.11748C171.355 6.64223 170.813 7.91286 169.729 8.92936C168.644 9.91198 167.221 10.4033 165.459 10.4033Z" fill="#3170F6"/>
</svg>
